<?xml version="1.0" encoding="utf-8"?>
<!-- Generator: Adobe Illustrator 24.3.0, SVG Export Plug-In . SVG Version: 6.00 Build 0)  -->
<svg version="1.1" id="Layer_1" xmlns="http://www.w3.org/2000/svg" xmlns:xlink="http://www.w3.org/1999/xlink" x="0px" y="0px"
	 viewBox="0 0 214.8 17.7" style="enable-background:new 0 0 214.8 17.7;" xml:space="preserve">
<style type="text/css">
	.st0{fill:#FFFFFF;}
</style>
<path id="prefix__Fill_1" class="st0" d="M5.6,17.4c-1.4,0.1-2.7-0.3-3.9-1c-1.2-0.8-1.8-2.1-1.7-3.6v-1.2h4.2l0,1.5
	c0,0.8,0.6,1.4,1.3,1.4c0.1,0,0.1,0,0.2,0c0.7,0.1,1.4-0.4,1.5-1c0.1-0.4,0.1-0.8,0-1.1c-0.3-0.9-1.6-1.5-2.9-2.2
	c-1.7-1-3.7-2-4.1-3.9c-0.1-0.7-0.2-1.4,0-2.1c0.5-2.8,3.2-3.4,5.4-3.4C6.8,0.8,8,1,9,1.5c1.2,0.6,1.9,1.9,1.8,3.2v1.1H7v-1
	C7,4.1,6.5,3.5,5.7,3.4c-0.1,0-0.1,0-0.2,0c-0.7-0.1-1.3,0.4-1.4,1C4,4.8,4.1,5,4.1,5.3c0.2,0.8,1.3,1.4,2.7,2.1
	c1.8,1,3.9,2.1,4.3,3.9c0.1,0.8,0.1,1.7,0,2.5c-0.1,1.2-0.8,2.2-1.8,2.7C8.1,17.2,6.9,17.5,5.6,17.4z M56,17.3
	c-1.4,0.1-2.7-0.3-3.9-0.9c-1.1-0.8-1.8-2.1-1.7-3.5v-1.2h4.1v1.5c0,0.8,0.6,1.4,1.3,1.4c0.1,0,0.1,0,0.2,0c0.7,0.1,1.3-0.4,1.5-1
	c0.1-0.4,0.1-0.8,0-1.1c-0.3-0.8-1.5-1.5-2.8-2.2c-1.7-0.9-3.7-2-4.1-3.8c-0.2-0.7-0.2-1.4,0-2.1c0.5-2.8,3.2-3.4,5.4-3.4
	c1.2-0.1,2.3,0.2,3.4,0.7c1.2,0.6,1.9,1.9,1.8,3.2v1.1h-3.8V4.9c0.1-0.7-0.5-1.3-1.2-1.4c-0.1,0-0.1,0-0.2,0c-0.7-0.1-1.3,0.4-1.4,1
	c0,0.3,0,0.5,0,0.8c0.2,0.8,1.3,1.4,2.7,2.1c1.8,1,3.9,2.1,4.2,3.9c0.1,0.8,0.2,1.7,0,2.5c-0.1,1.1-0.8,2.2-1.8,2.7
	C58.5,17.1,57.2,17.4,56,17.3z M70.5,17.3c-3.3,0-5.2-1.3-5.4-3.8c0-0.2,0-0.7,0-1V1.3H69v11.5c0,0.2,0,0.4,0,0.6
	c0.2,0.8,1.1,1.3,1.9,1.1c0.5-0.1,0.9-0.6,1.1-1.1c0-0.2,0-0.4,0-0.6V1.3h3.9v11.1c0,0.3,0,0.7,0,1C75.6,16,73.8,17.3,70.5,17.3z
	 M102.8,17.1c-1.3,0.1-2.5-0.2-3.7-0.9c-1.1-0.6-1.7-1.7-1.8-3c0-0.3-0.1-0.7-0.1-1V5.7c0-0.3,0-0.8,0.1-1c0.1-1.2,0.8-2.3,1.8-3
	c1.1-0.6,2.4-0.9,3.6-0.8c2.3,0,5.1,0.7,5.4,3.8c0,0.3,0,0.7,0,1v0.5h-3.9V5.4c0-0.2,0-0.4,0-0.6c-0.1-0.7-0.8-1.2-1.5-1.1
	c-0.7-0.1-1.4,0.4-1.5,1.1c-0.1,0.2-0.1,0.5-0.1,0.7v7.1c0,0.2,0,0.4,0,0.6c0.2,0.7,0.8,1.2,1.6,1.1c0.7,0.1,1.4-0.4,1.6-1.1
	c0-0.2,0-0.4,0-0.6v-2.2h-1.6V8.1h5.5v4.2c0,0.3,0,0.5-0.1,1C107.9,16.6,104.7,17.1,102.8,17.1z M33.3,16.8h-3.9l0.3-15.5H36l2,12.1
	l2-12.1h6.3l0.3,15.5h-3.9L42.6,2.5L40,16.8H36L33.4,2.5L33.3,16.8z M17.9,16.8h-4.2l2.9-15.5h6.9l2.9,15.5h-4.2L20,2.5
	C20,2.5,17.9,16.8,17.9,16.8z M84,16.6h-3.8V1.3H86l3.6,12.5L89.4,1.3h3.8v15.3h-5.5L83.8,3.8L84,16.6L84,16.6z"/>
<path id="prefix__Fill_3" class="st0" d="M125.3,17.5h-3.2L128,0.8h3.1l5.9,16.6h-3.2l-1-3h-6.4L125.3,17.5L125.3,17.5z M129.6,5.2
	l-2.2,6.3h4.4L129.6,5.2L129.6,5.2z"/>
<g id="prefix__Group_7" transform="translate(137.016 3.875)">
	<g id="prefix__Group_7-2">
		<path id="prefix__Fill_5" class="st0" d="M0,6.9C-0.1,3.2,3,0,6.7,0c0.1,0,0.1,0,0.2,0c2.8-0.1,5.3,1.6,6.3,4.1l-2.7,1.2
			c-0.6-1.5-2-2.4-3.6-2.4C4.8,2.9,3,4.6,3,6.8c0,0,0,0.1,0,0.1c0,2.2,1.7,4,3.9,4c0,0,0.1,0,0.1,0c1.6,0,3-1,3.6-2.5l2.7,1.2
			c-1,2.6-3.6,4.3-6.4,4.2C3.1,13.9,0,10.8,0,6.9C0,7,0,7,0,6.9"/>
	</g>
</g>
<g id="prefix__Group_10" transform="translate(150.836 3.875)">
	<g id="prefix__Group_10-2">
		<path id="prefix__Fill_8" class="st0" d="M0.1,6.9C0,3.2,3,0,6.8,0C6.9,0,6.9,0,7,0c2.8-0.1,5.3,1.6,6.3,4.1l-2.7,1.2
			C10,3.8,8.6,2.9,7,2.9c-2.2,0-3.9,1.8-3.9,3.9c0,0,0,0.1,0,0.1c0,2.2,1.7,4,3.9,4C7,11,7,11,7,11c1.6,0,3-1,3.6-2.5l2.7,1.2
			c-1,2.6-3.6,4.3-6.4,4.2C3.2,13.9,0.1,10.8,0.1,6.9C0.1,7,0.1,7,0.1,6.9"/>
	</g>
</g>
<g id="prefix__Group_13" transform="translate(164.656 3.875)">
	<g id="prefix__Group_13-2">
		<path id="prefix__Fill_11" class="st0" d="M7,13.8c-1.8,0-3.6-0.7-4.9-2c-1.3-1.3-2-3.1-2-4.9C0.1,3.2,3.1,0,6.9,0C6.9,0,7,0,7,0
			c1.8,0,3.6,0.7,4.9,2c1.3,1.3,2,3.1,2,4.9c0,1.8-0.7,3.6-2,4.9C10.6,13.1,8.9,13.9,7,13.8z M7,2.9c-2.2,0-3.9,1.8-3.9,4
			c0,0,0,0.1,0,0.1c-0.1,2.2,1.6,4,3.8,4C7,11,7,11,7,11c2.2,0,3.9-1.8,3.9-3.9c0,0,0-0.1,0-0.1C11,4.8,9.3,3,7,2.9
			C7.1,2.9,7.1,2.9,7,2.9z"/>
	</g>
</g>
<g id="prefix__Group_16" transform="translate(179.858 4.27)">
	<g id="prefix__Group_16-2">
		<path id="prefix__Fill_14" class="st0" d="M12,13.2H9v-1.5c-0.9,1.2-2.3,1.9-3.8,1.8C2,13.5,0,11.4,0,7.8v-7.9h3.1v7.6
			c0,2.1,0.9,3.3,2.8,3.3c1.7,0,3-1.3,3-3.6v-7.3H12L12,13.2z"/>
	</g>
</g>
<path id="prefix__Fill_17" class="st0" d="M193.8,4.1h3v1.6c0.9-1.2,2.4-1.9,4-1.9c3.3,0,5.3,2.1,5.3,5.7v7.9h-3.1V9.9
	c0-2.1-1-3.3-3-3.3c-1.7,0-3.1,1.3-3.1,3.6v7.3h-3.1V4.1z"/>
<g id="prefix__Group_21" transform="translate(206.708 .116)">
	<g id="prefix__Group_21-2">
		<path id="prefix__Fill_19" class="st0" d="M0.1,4h2.3V2l3.1-2.1V4h2.7v2.8H5.4v5c0,2.3,0.3,2.7,2.7,2.7v2.9H7.7
			c-4.1,0-5.4-1.3-5.4-5.6v-5H0.1V4z"/>
	</g>
</g>
</svg>
